<svg xmlns="http://www.w3.org/2000/svg" viewBox="0 0 230.92 224.97"><defs><style>.cls-1{fill:#fff;}</style></defs><title>byte_logo_white</title><g id="圖層_2" data-name="圖層 2"><g id="圖層_4" data-name="圖層 4"><path class="cls-1" d="M12.29,145.19H0v0H12.29Z"/><path class="cls-1" d="M181.32,25c.23.23.48.45.74.67l9.88,8.17a2.28,2.28,0,0,0,1.49.59,2.42,2.42,0,0,0,1.84-1,2.57,2.57,0,0,0,.67-1.85,2.26,2.26,0,0,0-.88-1.53l-9.85-8.15a6.89,6.89,0,0,0-1.73-1.07,2.09,2.09,0,0,0-2.52.76,2.18,2.18,0,0,0-.31,2.52A3.76,3.76,0,0,0,181.32,25Z"/><path class="cls-1" d="M192.41,48a3,3,0,0,0,2-.77,3.09,3.09,0,0,0,1-2.14,3,3,0,0,0-.78-2.19,3.08,3.08,0,0,0-2.1-1,3,3,0,0,0-2.26.79h0a3,3,0,0,0-1,2.11,3,3,0,0,0,.78,2.22,2.92,2.92,0,0,0,2.13,1Z"/><path class="cls-1" d="M202.92,62.83a3.53,3.53,0,0,0,.72.08,2.93,2.93,0,0,0,1.55-.44A3.06,3.06,0,1,0,202,57.24h0a3,3,0,0,0-1.34,1.89,3,3,0,0,0,2.27,3.7Z"/><path class="cls-1" d="M218.85,74l3.92,12.21a2.26,2.26,0,0,0,1.17,1.43,2.11,2.11,0,0,0,.9.19,3,3,0,0,0,.95-.16,2.22,2.22,0,0,0,1.64-3l-3.91-12.17a6.62,6.62,0,0,0-.88-1.83,2.08,2.08,0,0,0-2.53-.72,2.31,2.31,0,0,0-1.19.81,2.19,2.19,0,0,0-.43,1.15,4.15,4.15,0,0,0,.09,1.09C218.66,73.33,218.74,73.65,218.85,74Z"/><path class="cls-1" d="M221.39,104.79a3.07,3.07,0,0,0-1-2.09,3,3,0,0,0-2.27-.76h0A2.9,2.9,0,0,0,216,103a3,3,0,0,0,.32,4.33,3,3,0,0,0,2,.73h.22a3,3,0,0,0,2.86-3.26Z"/><path class="cls-1" d="M230.77,113a2.09,2.09,0,0,0-2.08-1.62,2.17,2.17,0,0,0-2.23,1.2,3.5,3.5,0,0,0-.33,1.05q-.07.48-.12,1l-1,12.78a2.21,2.21,0,0,0,2.25,2.49h.29a2.41,2.41,0,0,0,1.52-.46,2.21,2.21,0,0,0,.83-1.67l1-12.75A6.59,6.59,0,0,0,230.77,113Z"/><path class="cls-1" d="M226.76,133.29a2.21,2.21,0,0,0-1.44,0,2.16,2.16,0,0,0-1,.72,3.52,3.52,0,0,0-.53,1c-.11.3-.22.62-.31.94L220,148.26a2.23,2.23,0,0,0,.18,1.84,2.55,2.55,0,0,0,1.52,1.05,3.32,3.32,0,0,0,.9.13,2.18,2.18,0,0,0,1-.21,2.23,2.23,0,0,0,1.15-1.48l3.49-12.29a6.71,6.71,0,0,0,.28-2A2.07,2.07,0,0,0,226.76,133.29Z"/><path class="cls-1" d="M216.24,163.67a2.43,2.43,0,0,0-1.39-.4,2.25,2.25,0,0,0-1.15.41,3.55,3.55,0,0,0-.78.77,9.92,9.92,0,0,0-.57.82l-6.87,10.83a2.24,2.24,0,0,0-.34,1.82,2.47,2.47,0,0,0,1.16,1.43,2.75,2.75,0,0,0,1.47.48,2.18,2.18,0,0,0,1.85-1.11l6.84-10.8a6.86,6.86,0,0,0,.85-1.84A2.09,2.09,0,0,0,216.24,163.67Z"/><path class="cls-1" d="M202.92,181.44a2.21,2.21,0,0,0-1.22.17,3.58,3.58,0,0,0-.91.6,7.77,7.77,0,0,0-.72.69l-8.89,9.24a2.21,2.21,0,0,0,.15,3.36,2.56,2.56,0,0,0,1.68.8h.07a2.22,2.22,0,0,0,1.63-.76l8.86-9.22a7.34,7.34,0,0,0,1.2-1.65,2.09,2.09,0,0,0-.57-2.56A2.26,2.26,0,0,0,202.92,181.44Z"/><path class="cls-1" d="M187.62,196.85a2.31,2.31,0,0,0-1.22-.07,3.46,3.46,0,0,0-1,.41c-.28.16-.56.34-.84.53L174,205a2.25,2.25,0,0,0-1,1.54,2.46,2.46,0,0,0,.51,1.77h0a2.21,2.21,0,0,0,3.31.7l10.5-7.29a6.84,6.84,0,0,0,1.49-1.37,2.09,2.09,0,0,0,0-2.63A2.3,2.3,0,0,0,187.62,196.85Z"/><path class="cls-1" d="M155.94,203.5a3.06,3.06,0,0,0-4.1,3.88,3.05,3.05,0,0,0,2.85,2,3.11,3.11,0,0,0,2.81-1.81,3,3,0,0,0-1.56-4.06Z"/><path class="cls-1" d="M150.94,216.82a2.22,2.22,0,0,0-1.1-.53,3.68,3.68,0,0,0-1.1,0,8.82,8.82,0,0,0-1,.18l-12.5,2.84a2.2,2.2,0,0,0-1.72,2.88h0a2.23,2.23,0,0,0,2.18,2,2.68,2.68,0,0,0,.62-.07l12.47-2.83a6.76,6.76,0,0,0,1.9-.71,2.09,2.09,0,0,0,.94-2.46A2.31,2.31,0,0,0,150.94,216.82Z"/><path class="cls-1" d="M125.91,209.85a3,3,0,0,0-2.09,1.08,3.07,3.07,0,0,0,.34,4.31,3,3,0,0,0,2,.74h.24a3.09,3.09,0,0,0,2.09-1.05,3,3,0,0,0-.32-4.33A3,3,0,0,0,125.91,209.85Z"/><path class="cls-1" d="M108.64,220.66a3.69,3.69,0,0,0-1-.42,10,10,0,0,0-1-.2L94,218a2.46,2.46,0,0,0-.79,4.84l12.61,2.07a7.71,7.71,0,0,0,1.24.11,5.06,5.06,0,0,0,.79-.06,2.09,2.09,0,0,0,1.8-1.92,2.26,2.26,0,0,0-.18-1.43A2.18,2.18,0,0,0,108.64,220.66Z"/><path class="cls-1" d="M88.87,205.68a3,3,0,0,0-2.35.22A3,3,0,0,0,85,207.66a3,3,0,0,0,2,3.86,3.06,3.06,0,0,0,2.33-.18,3,3,0,0,0,1.55-1.82,3,3,0,0,0-.23-2.31A3,3,0,0,0,88.87,205.68Z"/><path class="cls-1" d="M77.89,213.35a3.76,3.76,0,0,0-.85-.69c-.28-.16-.57-.32-.87-.47l-11.53-5.62a2.2,2.2,0,0,0-3.14,1.17,2.54,2.54,0,0,0-.25,1.85A2.2,2.2,0,0,0,62.5,211L74,216.57a6.73,6.73,0,0,0,1.93.64l.32,0a2.12,2.12,0,0,0,2-1.35,2.31,2.31,0,0,0,.24-1.43A2.24,2.24,0,0,0,77.89,213.35Z"/><path class="cls-1" d="M58.05,202.58a9.58,9.58,0,0,0-.77-.63l-10.17-7.81a2.21,2.21,0,0,0-3.31.52,2.48,2.48,0,0,0-.6,1.87,2.22,2.22,0,0,0,.93,1.5l10.15,7.78a6.57,6.57,0,0,0,1.76,1,2.06,2.06,0,0,0,.72.13,2.17,2.17,0,0,0,1.77-1,2.28,2.28,0,0,0,.52-1.34,2.22,2.22,0,0,0-.3-1.19A3.85,3.85,0,0,0,58.05,202.58Z"/><path class="cls-1" d="M46.13,186.11h.1a3.07,3.07,0,0,0,0-6.13A3.06,3.06,0,0,0,44,185.16,3.08,3.08,0,0,0,46.13,186.11Z"/><path class="cls-1" d="M35.06,165.6a3,3,0,0,0-2.26.44,3,3,0,0,0-1.33,2,3,3,0,0,0,.45,2.29,3,3,0,0,0,1.92,1.32,3.11,3.11,0,0,0,.67.07,3,3,0,0,0,1.68-.52h0a3.12,3.12,0,0,0,.84-4.26A3,3,0,0,0,35.06,165.6Z"/><path class="cls-1" d="M18.74,155.06,14.37,143a2.21,2.21,0,0,0-3.07-1.35h0a2.59,2.59,0,0,0-1.47,1.16,2.18,2.18,0,0,0-.06,1.86l4.35,12a7.29,7.29,0,0,0,1,1.8,2,2,0,0,0,1.61.8,2.77,2.77,0,0,0,.95-.18,2.26,2.26,0,0,0,1.16-.86,2.11,2.11,0,0,0,.38-1.16A3.53,3.53,0,0,0,19,156,9.42,9.42,0,0,0,18.74,155.06Z"/><path class="cls-1" d="M20,121.64a3,3,0,0,0-2.21-.64,3,3,0,0,0-2.74,3.36,3.09,3.09,0,0,0,1.11,2.06,3,3,0,0,0,1.93.69,2.36,2.36,0,0,0,.37,0,3,3,0,0,0,2-1.14,3,3,0,0,0-.48-4.31Z"/><path class="cls-1" d="M10,115.7c0-.32.07-.65.08-1l.49-12.81a2.21,2.21,0,0,0-2.34-2.41h0a2.23,2.23,0,0,0-2.55,2.22l-.49,12.77a6.9,6.9,0,0,0,.2,2,2.09,2.09,0,0,0,2.13,1.54h.13a2.28,2.28,0,0,0,1.27-.35,2.25,2.25,0,0,0,.79-.94A3.66,3.66,0,0,0,10,115.7Z"/><path class="cls-1" d="M8.65,96.07a3,3,0,0,0,.65.08,2,2,0,0,0,.78-.15,2.21,2.21,0,0,0,1-.76,3.59,3.59,0,0,0,.49-1q.15-.47.27-1l3-12.46A2.2,2.2,0,0,0,13,78a2.53,2.53,0,0,0-1.95.21,2.22,2.22,0,0,0-1,1.46l-3,12.42a7,7,0,0,0-.2,2A2.1,2.1,0,0,0,8.65,96.07Z"/><path class="cls-1" d="M27.36,49.28a2.55,2.55,0,0,0-1.82-.38A2.19,2.19,0,0,0,24.06,50l-6.43,11A7.23,7.23,0,0,0,16.85,63,2.1,2.1,0,0,0,18,65.33a2.46,2.46,0,0,0,1.21.35h.19a2.25,2.25,0,0,0,1.14-.45,3.85,3.85,0,0,0,.75-.8q.28-.4.54-.84L28.29,52.5a2.2,2.2,0,0,0,.28-1.83A2.51,2.51,0,0,0,27.36,49.28Z"/><path class="cls-1" d="M40,31.86h0a2.19,2.19,0,0,0-1.67.82l-8.51,9.55a7,7,0,0,0-1.13,1.68,2.1,2.1,0,0,0,.66,2.55,2.34,2.34,0,0,0,1.3.62h.23a2.24,2.24,0,0,0,1-.23,3.46,3.46,0,0,0,.89-.63,9.54,9.54,0,0,0,.7-.72L42,35.94a2.2,2.2,0,0,0-.27-3.34A2.6,2.6,0,0,0,40,31.86Z"/><path class="cls-1" d="M59.07,19.09A2.57,2.57,0,0,0,57.55,18a2.24,2.24,0,0,0-1.81.48L45.52,26.17a6.79,6.79,0,0,0-1.45,1.43,2.1,2.1,0,0,0,.15,2.63,2.28,2.28,0,0,0,1.15.86,2.22,2.22,0,0,0,.67.1,2.15,2.15,0,0,0,.56-.07,3.16,3.16,0,0,0,1-.45c.28-.17.55-.36.83-.56l10.25-7.69a2.2,2.2,0,0,0,.39-3.33Z"/><path class="cls-1" d="M79.05,17.59a3,3,0,0,0-2.33,0,3.08,3.08,0,0,0-1.64,1.67,3,3,0,0,0,0,2.38h0a3,3,0,0,0,1.68,1.6,3.15,3.15,0,0,0,1.16.23,3,3,0,0,0,1.2-.26,3.08,3.08,0,0,0,1.59-4A3,3,0,0,0,79.05,17.59Z"/><path class="cls-1" d="M98.49,3.77h0A2.22,2.22,0,0,0,95.62,2L83.27,5.27a7,7,0,0,0-1.87.79,2.08,2.08,0,0,0-.85,2.49,2.23,2.23,0,0,0,.75,1.23,2.26,2.26,0,0,0,1.13.49l.41,0a4,4,0,0,0,.68-.06c.32-.06.65-.13,1-.21L96.88,6.71A2.19,2.19,0,0,0,98.49,3.77Z"/><path class="cls-1" d="M104.29,15.16a3,3,0,0,0,1.9.68l.37,0a3,3,0,0,0,2-1.16,3,3,0,0,0,.64-2.22,3.07,3.07,0,0,0-1.14-2.08,3,3,0,0,0-2.24-.64,3.08,3.08,0,0,0-2,1.12,3,3,0,0,0-.66,2.3A3,3,0,0,0,104.29,15.16Z"/><path class="cls-1" d="M124.45,4.75c.32.07.65.12,1,.17l12.72,1.61a2.61,2.61,0,0,0,.39,0,2.11,2.11,0,0,0,1.34-.43,2.47,2.47,0,0,0,.87-1.71,2.59,2.59,0,0,0-.36-1.83,2.23,2.23,0,0,0-1.62-.91L126.09.07a6.6,6.6,0,0,0-2,0,2.08,2.08,0,0,0-1.72,2,2.24,2.24,0,0,0,.23,1.41,2.14,2.14,0,0,0,.86.88A3.49,3.49,0,0,0,124.45,4.75Z"/><path class="cls-1" d="M143.65,18.59a3.05,3.05,0,0,0,2.34-.3,3.08,3.08,0,0,0,1.16-4.16,2.94,2.94,0,0,0-1.83-1.44,3.07,3.07,0,0,0-3.81,2.12h0a3,3,0,0,0,.29,2.3A3.05,3.05,0,0,0,143.65,18.59Z"/><path class="cls-1" d="M169.89,12.34,158.2,7.18a6.86,6.86,0,0,0-1.95-.57A2.11,2.11,0,0,0,154,8a2.34,2.34,0,0,0-.19,1.42,2.31,2.31,0,0,0,.58,1.09,3.61,3.61,0,0,0,.88.66c.28.15.58.3.89.44l11.73,5.18a2.46,2.46,0,0,0,1,.24,2.23,2.23,0,0,0,.81-.16A2.53,2.53,0,0,0,171,15.53,2.23,2.23,0,0,0,169.89,12.34Z"/><path class="cls-1" d="M116.09,103.41a6,6,0,0,0-3.65-1.06,6.15,6.15,0,0,0-3.65,1,3,3,0,0,0-1.43,2.42v20.65a15.31,15.31,0,0,1-.7,5.08,7.58,7.58,0,0,1-1.88,3.08,6.41,6.41,0,0,1-2.87,1.51,15.06,15.06,0,0,1-3.65.41,10.21,10.21,0,0,1-3.94-.65,5.29,5.29,0,0,1-2.41-2,8.53,8.53,0,0,1-1.19-3.28,28,28,0,0,1-.33-4.59V105.79A2.9,2.9,0,0,0,89,103.33a6.52,6.52,0,0,0-3.73-1,6.09,6.09,0,0,0-3.64,1,2.94,2.94,0,0,0-1.36,2.46v24.26a17.76,17.76,0,0,0,1.23,6.88,13.53,13.53,0,0,0,3.32,4.88,14.06,14.06,0,0,0,4.88,2.91,17.94,17.94,0,0,0,6,1,13.44,13.44,0,0,0,4.18-.61,11.65,11.65,0,0,0,3.32-1.68,13.67,13.67,0,0,0,2.5-2.42,14.36,14.36,0,0,0,1.72-2.75v6.48a5.16,5.16,0,0,1-.66,2.46,7,7,0,0,1-2,2.21A11.7,11.7,0,0,1,101.5,151a15.58,15.58,0,0,1-4.47.74,20.49,20.49,0,0,1-7.17-1A14.59,14.59,0,0,1,85,148.08a2.84,2.84,0,0,0-2.83-.78c-1,.3-1.68,1.21-2.17,2.75a5.34,5.34,0,0,0,2.21,6.3,28.68,28.68,0,0,0,3.48,2.34,19.71,19.71,0,0,0,3.44,1.52,18.6,18.6,0,0,0,3.69.78,42.87,42.87,0,0,0,4.3.2,25.72,25.72,0,0,0,8-1.06,19.9,19.9,0,0,0,6.51-3.36,15.89,15.89,0,0,0,4.35-5.29,15,15,0,0,0,1.55-6.85V105.79A3,3,0,0,0,116.09,103.41Z"/><path class="cls-1" d="M159.81,89.48H128.18a4.47,4.47,0,0,0-3,1.11,4.54,4.54,0,0,0-1.31,3.64,4.37,4.37,0,0,0,1.4,3.69A4.65,4.65,0,0,0,128.18,99h10.48v44.17A4.3,4.3,0,0,0,139.9,146c.81.93,2.18,1.39,4.09,1.39a5.45,5.45,0,0,0,4.1-1.31,4.2,4.2,0,0,0,1.23-3V99h10.49a4.7,4.7,0,0,0,2.87-1.07,4.37,4.37,0,0,0,1.39-3.69,4.54,4.54,0,0,0-1.31-3.64A4.44,4.44,0,0,0,159.81,89.48Z"/><circle class="cls-1" cx="98.61" cy="82.23" r="11.66"/><path class="cls-1" d="M197.17,121.69H210c.31-3,.46-6.1.47-9.21H197.8v0H181.19V98.66h28.18a92.83,92.83,0,0,0-183.73,0h21.3a10.15,10.15,0,0,1,3.48.53,6.5,6.5,0,0,1,2.33,1.44,5.71,5.71,0,0,1,1.32,2,6.77,6.77,0,0,1,.4,2.34,6.6,6.6,0,0,1-1.67,4.63q-1.68,1.84-5.86,1.85H27.84v9.66H45.22a28.44,28.44,0,0,1,4.79.37,9.46,9.46,0,0,1,3.52,1.31,6,6,0,0,1,2.18,2.55,9.91,9.91,0,0,1,.74,4.13q.07,4.18-2.59,6.07a12.47,12.47,0,0,1-7.33,1.88h-9v0H28.13a92.84,92.84,0,0,0,178.73.05h-8.17l-.37,0H181.19V121.69Zm-25.23,24a6.77,6.77,0,0,0,3.85.94h11.75a78,78,0,0,1-143-6.81c.89,2.32,1.91,4.59,3,6.81h1.78q8.69,0,13.2-4.14T67,130.87a16.43,16.43,0,0,0-1.11-6.35A13.63,13.63,0,0,0,63,120.09a12.89,12.89,0,0,0-4-2.74,20.45,20.45,0,0,0-4.56-1.4,15.59,15.59,0,0,0,4.14-1.35A11.49,11.49,0,0,0,62,112.14a10.88,10.88,0,0,0,2.26-3.65,13.79,13.79,0,0,0,.82-5,16.35,16.35,0,0,0-.86-5.24,10.74,10.74,0,0,0-2.95-4.46,15.5,15.5,0,0,0-5.53-3.12,26.49,26.49,0,0,0-8.53-1.19H42.85c-.66,2.19-1.26,4.41-1.76,6.66a78,78,0,0,1,151.12-6.66H175.79a6.5,6.5,0,0,0-3.94,1c-.87.65-1.31,1.83-1.31,3.52v48.1C170.54,143.84,171,145,171.94,145.66Z"/></g></g></svg>