<?xml version="1.0" encoding="utf-8"?>
<!-- Generator: Adobe Illustrator 22.0.1, SVG Export Plug-In . SVG Version: 6.00 Build 0)  -->
<svg version="1.1" id="圖層_1" xmlns="http://www.w3.org/2000/svg" xmlns:xlink="http://www.w3.org/1999/xlink" x="0px" y="0px"
	 viewBox="0 0 800 800" style="enable-background:new 0 0 800 800;" xml:space="preserve">
<style type="text/css">
	.st0{fill:#D96067;}
	.st1{fill:#FFFFFF;}
	.st2{fill:#FEC144;}
	.st3{fill:#94CCCE;}
</style>
<g>
	<circle class="st0" cx="391.8" cy="226.2" r="159"/>
	<g>
		<path class="st1" d="M281.3,241c0,1,0.1,1.5,0.4,1.7c0.3,0.2,0.9,0.3,1.9,0.3h2.2v3.1c-1.5,0.3-2.7,0.4-3.6,0.4
			c-1.6,0-2.8-0.4-3.6-1.2c-0.8-0.8-1.1-2-1.1-3.7V220h-5.1v-3.1h5.1v-11.1h3.7v11.1h5.8v3.1h-5.8V241z"/>
		<path class="st1" d="M291.3,216.9h3.8v4.2c1-1.7,2-2.9,2.9-3.7c1-0.8,2-1.2,3.2-1.2s2.3,0.3,3.5,1l-1.9,3.1
			c-0.5-0.3-1.1-0.5-1.7-0.5c-1.1,0-2.2,0.6-3.2,1.7c-1,1.2-1.7,2.6-2.2,4.5c-0.5,1.8-0.7,5.1-0.7,9.9v9.7h-3.8V216.9z"/>
		<path class="st1" d="M337.5,216.9v28.7h-3.6v-4.9c-3.3,3.9-7,5.9-11.2,5.9c-4.2,0-7.8-1.5-10.7-4.5c-2.9-3-4.3-6.6-4.3-10.7
			c0-4.2,1.5-7.7,4.4-10.7c2.9-3,6.4-4.5,10.5-4.5c4.7,0,8.5,2,11.4,6v-5.2H337.5z M334.1,231.4c0-3.3-1.1-6-3.3-8.3
			c-2.2-2.2-4.9-3.4-8.1-3.4c-3.2,0-5.9,1.2-8.1,3.5c-2.2,2.3-3.3,5.1-3.3,8.2c0,3.2,1.1,5.9,3.3,8.2c2.2,2.3,4.9,3.5,8,3.5
			c3.1,0,5.8-1.1,8-3.3C333,237.6,334.1,234.8,334.1,231.4z"/>
		<path class="st1" d="M345.8,216.9h3.7v5.1c3-3.9,6.5-5.9,10.7-5.9c2.2,0,4.1,0.6,5.8,1.8c1.7,1.2,3,2.7,3.7,4.6
			c0.7,1.9,1.1,4.7,1.1,8.3v14.7h-3.7v-13.7c0-3.3-0.2-5.6-0.5-6.8c-0.3-1.2-0.8-2.2-1.4-3c-0.6-0.8-1.4-1.5-2.4-1.9
			c-1-0.4-2.2-0.6-3.5-0.6c-1.4,0-2.7,0.3-4.1,1c-1.3,0.7-2.5,1.6-3.4,2.9c-0.9,1.2-1.6,2.5-1.9,3.8c-0.3,1.3-0.5,3.9-0.5,7.8v10.5
			h-3.7V216.9z"/>
		<path class="st1" d="M393.1,220l-2.4,2.4c-2-1.9-3.9-2.9-5.8-2.9c-1.2,0-2.2,0.4-3.1,1.2c-0.8,0.8-1.2,1.7-1.2,2.9
			c0,1.1,0.4,2.1,1.3,2.9s2.4,1.8,4.6,2.9c2.2,1.1,3.8,2.4,4.9,3.7c1.1,1.3,1.7,2.9,1.7,4.8c0,2.4-0.8,4.4-2.5,6.1
			c-1.7,1.7-3.7,2.5-6.2,2.5c-1.6,0-3.2-0.4-4.7-1.1c-1.5-0.7-2.8-1.7-3.8-3l2.3-2.6c1.9,2.1,3.9,3.2,6,3.2c1.5,0,2.7-0.5,3.8-1.5
			c1-1,1.6-2.1,1.6-3.4c0-1.3-0.5-2.4-1.4-3.2c-0.9-0.8-2.4-1.8-4.6-2.9c-2.1-1.1-3.7-2.3-4.8-3.5c-1.1-1.3-1.6-2.9-1.6-5
			c0-2,0.7-3.8,2.2-5.2c1.5-1.4,3.5-2.2,5.9-2.2C388,216.2,390.5,217.5,393.1,220z"/>
		<path class="st1" d="M411.5,206.6v3.6c-1.4-0.6-2.7-0.9-3.8-0.9c-1.1,0-1.8,0.4-2.1,1.1c-0.3,0.7-0.5,1.8-0.5,3.4v3.1h6v3.1h-6
			v25.5h-3.7V220h-3.7v-3.1h3.7v-3.7c0-2.5,0.5-4.4,1.4-5.6c0.9-1.2,2.4-1.8,4.4-1.8C408.3,205.8,409.8,206.1,411.5,206.6z"/>
		<path class="st1" d="M415.3,231.4c0-4.2,1.4-7.8,4.3-10.8c2.9-3,6.4-4.5,10.6-4.5c4.2,0,7.7,1.5,10.6,4.5c2.9,3,4.3,6.6,4.3,10.7
			c0,4.2-1.4,7.7-4.3,10.7c-2.9,3-6.4,4.5-10.6,4.5c-4.2,0-7.8-1.5-10.6-4.5C416.7,239.1,415.3,235.6,415.3,231.4z M441.4,231.5
			c0-3.2-1.1-5.9-3.3-8.2c-2.2-2.3-4.8-3.5-7.9-3.5c-3,0-5.7,1.2-7.9,3.5c-2.2,2.3-3.3,5.1-3.3,8.3c0,3.2,1.1,5.9,3.2,8.2
			c2.1,2.2,4.8,3.3,7.9,3.3c3.1,0,5.8-1.1,8-3.4C440.3,237.4,441.4,234.7,441.4,231.5z"/>
		<path class="st1" d="M450.6,216.9h3.8v4.2c1-1.7,2-2.9,2.9-3.7c1-0.8,2-1.2,3.2-1.2c1.2,0,2.3,0.3,3.5,1l-1.9,3.1
			c-0.5-0.3-1.1-0.5-1.7-0.5c-1.1,0-2.2,0.6-3.2,1.7c-1,1.2-1.7,2.6-2.2,4.5c-0.5,1.8-0.7,5.1-0.7,9.9v9.7h-3.8V216.9z"/>
		<path class="st1" d="M468.2,216.9h3.7v5c2.6-3.8,5.8-5.7,9.8-5.7c2.1,0,4,0.6,5.7,1.8c1.7,1.2,2.8,2.9,3.4,5.1
			c1.2-2.2,2.7-3.9,4.5-5.1s3.9-1.8,6.3-1.8c2.4,0,4.6,0.9,6.5,2.8c1.9,1.9,2.9,5.5,2.9,11v15.7h-3.8v-15.7c0-2.6-0.2-4.6-0.5-5.8
			c-0.3-1.2-1-2.3-2.1-3.1c-1.1-0.8-2.5-1.3-4.3-1.3c-1.8,0-3.4,0.6-5,1.8c-1.5,1.2-2.6,2.7-3.2,4.5c-0.6,1.8-0.9,4.6-0.9,8.3v11.2
			h-3.6v-14.7c0-3.1-0.2-5.2-0.5-6.6c-0.3-1.3-1-2.4-2.2-3.3c-1.1-0.9-2.5-1.3-4.1-1.3s-3.1,0.5-4.6,1.4c-1.4,1-2.5,2.3-3.3,3.9
			c-0.8,1.7-1.2,4.4-1.2,8.4v12.1h-3.7V216.9z"/>
	</g>
</g>
<g>
	<circle class="st2" cx="207.8" cy="568.9" r="159"/>
	<g>
		<path class="st1" d="M102.9,583.8c0,1,0.1,1.5,0.4,1.7c0.3,0.2,0.9,0.3,1.9,0.3h2.2v3.1c-1.5,0.3-2.7,0.4-3.6,0.4
			c-1.6,0-2.8-0.4-3.6-1.2c-0.8-0.8-1.1-2-1.1-3.7v-21.6h-5.1v-3.1h5.1v-11.1h3.7v11.1h5.8v3.1h-5.8V583.8z"/>
		<path class="st1" d="M112.8,559.7h3.8v4.2c1-1.7,2-2.9,2.9-3.7c1-0.8,2-1.2,3.2-1.2s2.3,0.3,3.5,1l-1.9,3.1
			c-0.5-0.3-1.1-0.5-1.7-0.5c-1.1,0-2.2,0.6-3.2,1.7s-1.7,2.6-2.2,4.5c-0.5,1.8-0.7,5.1-0.7,9.9v9.7h-3.8V559.7z"/>
		<path class="st1" d="M159,559.7v28.7h-3.6v-4.9c-3.3,3.9-7,5.9-11.2,5.9c-4.2,0-7.8-1.5-10.7-4.5c-2.9-3-4.3-6.6-4.3-10.7
			c0-4.2,1.5-7.7,4.4-10.7c2.9-3,6.4-4.5,10.5-4.5c4.7,0,8.5,2,11.4,6v-5.2H159z M155.6,574.1c0-3.3-1.1-6-3.3-8.3
			c-2.2-2.2-4.9-3.4-8.1-3.4c-3.2,0-5.9,1.2-8.1,3.5c-2.2,2.3-3.3,5.1-3.3,8.2c0,3.2,1.1,5.9,3.3,8.2c2.2,2.3,4.9,3.5,8,3.5
			c3.1,0,5.8-1.1,8-3.3C154.5,580.3,155.6,577.5,155.6,574.1z"/>
		<path class="st1" d="M167.3,559.7h3.7v5.1c3-3.9,6.5-5.9,10.7-5.9c2.2,0,4.1,0.6,5.8,1.8c1.7,1.2,3,2.7,3.7,4.6
			c0.7,1.9,1.1,4.7,1.1,8.3v14.7h-3.7v-13.7c0-3.3-0.2-5.6-0.5-6.8c-0.3-1.2-0.8-2.2-1.4-3c-0.6-0.8-1.4-1.5-2.4-1.9
			s-2.2-0.6-3.5-0.6c-1.4,0-2.7,0.3-4.1,1c-1.3,0.7-2.5,1.6-3.4,2.9c-0.9,1.2-1.6,2.5-1.9,3.8c-0.3,1.3-0.5,3.9-0.5,7.8v10.5h-3.7
			V559.7z"/>
		<path class="st1" d="M214.7,562.8l-2.4,2.4c-2-1.9-3.9-2.9-5.8-2.9c-1.2,0-2.2,0.4-3.1,1.2c-0.8,0.8-1.2,1.7-1.2,2.9
			c0,1.1,0.4,2.1,1.3,2.9s2.4,1.8,4.6,2.9c2.2,1.1,3.8,2.4,4.9,3.7c1.1,1.3,1.7,2.9,1.7,4.8c0,2.4-0.8,4.4-2.5,6.1
			c-1.7,1.7-3.7,2.5-6.2,2.5c-1.6,0-3.2-0.4-4.7-1.1c-1.5-0.7-2.8-1.7-3.8-3l2.3-2.6c1.9,2.1,3.9,3.2,6,3.2c1.5,0,2.7-0.5,3.8-1.5
			c1-1,1.6-2.1,1.6-3.4c0-1.3-0.5-2.4-1.4-3.2c-0.9-0.8-2.4-1.8-4.6-2.9c-2.1-1.1-3.7-2.3-4.8-3.5c-1.1-1.3-1.6-2.9-1.6-5
			s0.7-3.8,2.2-5.2c1.5-1.4,3.5-2.2,5.9-2.2C209.5,558.9,212,560.2,214.7,562.8z"/>
		<path class="st1" d="M219.5,551.7c0-0.8,0.3-1.5,0.9-2.2c0.6-0.6,1.3-0.9,2.2-0.9s1.6,0.3,2.2,0.9s0.9,1.3,0.9,2.2
			s-0.3,1.6-0.9,2.2s-1.3,0.9-2.2,0.9s-1.6-0.3-2.2-0.9S219.5,552.5,219.5,551.7z M220.7,559.7h3.7v28.7h-3.7V559.7z"/>
		<path class="st1" d="M239,583.8c0,1,0.1,1.5,0.4,1.7c0.3,0.2,0.9,0.3,1.9,0.3h2.2v3.1c-1.5,0.3-2.7,0.4-3.6,0.4
			c-1.6,0-2.8-0.4-3.6-1.2c-0.8-0.8-1.1-2-1.1-3.7v-21.6h-5.1v-3.1h5.1v-11.1h3.7v11.1h5.8v3.1H239V583.8z"/>
		<path class="st1" d="M248.6,551.7c0-0.8,0.3-1.5,0.9-2.2c0.6-0.6,1.3-0.9,2.2-0.9s1.6,0.3,2.2,0.9s0.9,1.3,0.9,2.2
			s-0.3,1.6-0.9,2.2s-1.3,0.9-2.2,0.9s-1.6-0.3-2.2-0.9S248.6,552.5,248.6,551.7z M249.8,559.7h3.7v28.7h-3.7V559.7z"/>
		<path class="st1" d="M259.7,574.2c0-4.2,1.4-7.8,4.3-10.8c2.9-3,6.4-4.5,10.6-4.5c4.2,0,7.7,1.5,10.6,4.5c2.9,3,4.3,6.6,4.3,10.7
			c0,4.2-1.4,7.7-4.3,10.7c-2.9,3-6.4,4.5-10.6,4.5c-4.2,0-7.8-1.5-10.6-4.5C261.2,581.9,259.7,578.3,259.7,574.2z M285.9,574.2
			c0-3.2-1.1-5.9-3.3-8.2c-2.2-2.3-4.8-3.5-7.9-3.5c-3,0-5.7,1.2-7.9,3.5c-2.2,2.3-3.3,5.1-3.3,8.3s1.1,5.9,3.2,8.2
			c2.1,2.2,4.8,3.3,7.9,3.3c3.1,0,5.8-1.1,8-3.4C284.8,580.2,285.9,577.4,285.9,574.2z"/>
		<path class="st1" d="M296.4,559.7h3.7v5.1c3-3.9,6.5-5.9,10.7-5.9c2.2,0,4.1,0.6,5.8,1.8c1.7,1.2,3,2.7,3.7,4.6
			c0.7,1.9,1.1,4.7,1.1,8.3v14.7h-3.7v-13.7c0-3.3-0.2-5.6-0.5-6.8c-0.3-1.2-0.8-2.2-1.4-3c-0.6-0.8-1.4-1.5-2.4-1.9
			s-2.2-0.6-3.5-0.6c-1.4,0-2.7,0.3-4.1,1c-1.3,0.7-2.5,1.6-3.4,2.9c-0.9,1.2-1.6,2.5-1.9,3.8c-0.3,1.3-0.5,3.9-0.5,7.8v10.5h-3.7
			V559.7z"/>
	</g>
</g>
<g>
	<circle class="st3" cx="592.2" cy="573.9" r="159"/>
	<g>
		<path class="st1" d="M492.1,564.7v28.7h-3.6v-4.9c-3.3,3.9-7,5.9-11.2,5.9s-7.8-1.5-10.7-4.5c-2.9-3-4.3-6.6-4.3-10.7
			c0-4.2,1.5-7.7,4.4-10.7c2.9-3,6.4-4.5,10.5-4.5c4.7,0,8.5,2,11.4,6v-5.2H492.1z M488.7,579.1c0-3.3-1.1-6-3.3-8.3
			c-2.2-2.2-4.9-3.4-8.1-3.4s-5.9,1.2-8.1,3.5s-3.3,5.1-3.3,8.2c0,3.2,1.1,5.9,3.3,8.2c2.2,2.3,4.9,3.5,8,3.5c3.1,0,5.8-1.1,8-3.3
			S488.7,582.5,488.7,579.1z"/>
		<path class="st1" d="M500.4,564.7h3.7v5.1c3-3.9,6.5-5.9,10.7-5.9c2.2,0,4.1,0.6,5.8,1.8c1.7,1.2,3,2.7,3.7,4.6
			c0.7,1.9,1.1,4.7,1.1,8.3v14.7h-3.7v-13.7c0-3.3-0.2-5.6-0.5-6.8s-0.8-2.2-1.4-3c-0.6-0.8-1.4-1.5-2.4-1.9s-2.2-0.6-3.5-0.6
			c-1.4,0-2.7,0.3-4.1,1c-1.3,0.7-2.5,1.6-3.4,2.9c-0.9,1.2-1.6,2.5-1.9,3.8c-0.3,1.3-0.5,3.9-0.5,7.8v10.5h-3.7V564.7z"/>
		<path class="st1" d="M531.6,556.7c0-0.8,0.3-1.5,0.9-2.2c0.6-0.6,1.3-0.9,2.2-0.9s1.6,0.3,2.2,0.9s0.9,1.3,0.9,2.2
			s-0.3,1.6-0.9,2.2s-1.3,0.9-2.2,0.9s-1.6-0.3-2.2-0.9S531.6,557.5,531.6,556.7z M532.8,564.7h3.7v28.7h-3.7V564.7z"/>
		<path class="st1" d="M544.1,564.7h3.7v5c2.6-3.8,5.8-5.7,9.8-5.7c2.1,0,4,0.6,5.7,1.8c1.7,1.2,2.8,2.9,3.4,5.1
			c1.2-2.2,2.7-3.9,4.5-5.1c1.8-1.2,3.9-1.8,6.3-1.8s4.6,0.9,6.5,2.8c1.9,1.9,2.9,5.5,2.9,11v15.7h-3.8v-15.7c0-2.6-0.2-4.6-0.5-5.8
			c-0.3-1.2-1-2.3-2.1-3.1c-1.1-0.8-2.5-1.3-4.3-1.3c-1.8,0-3.4,0.6-5,1.8s-2.6,2.7-3.2,4.5s-0.9,4.6-0.9,8.3v11.2h-3.6v-14.7
			c0-3.1-0.2-5.2-0.5-6.6c-0.3-1.3-1-2.4-2.2-3.3c-1.1-0.9-2.5-1.3-4.1-1.3s-3.1,0.5-4.6,1.4c-1.4,1-2.5,2.3-3.3,3.9
			s-1.2,4.4-1.2,8.4v12.1h-3.7V564.7z"/>
		<path class="st1" d="M623.3,564.7v28.7h-3.6v-4.9c-3.3,3.9-7,5.9-11.2,5.9c-4.2,0-7.8-1.5-10.7-4.5c-2.9-3-4.3-6.6-4.3-10.7
			c0-4.2,1.5-7.7,4.4-10.7c2.9-3,6.4-4.5,10.5-4.5c4.7,0,8.5,2,11.4,6v-5.2H623.3z M619.9,579.1c0-3.3-1.1-6-3.3-8.3
			s-4.9-3.4-8.1-3.4c-3.2,0-5.9,1.2-8.1,3.5c-2.2,2.3-3.3,5.1-3.3,8.2c0,3.2,1.1,5.9,3.3,8.2s4.9,3.5,8,3.5c3.1,0,5.8-1.1,8-3.3
			C618.8,585.3,619.9,582.5,619.9,579.1z"/>
		<path class="st1" d="M638.6,588.8c0,1,0.1,1.5,0.4,1.7c0.3,0.2,0.9,0.3,1.9,0.3h2.2v3.1c-1.5,0.3-2.7,0.4-3.6,0.4
			c-1.6,0-2.8-0.4-3.6-1.2c-0.8-0.8-1.1-2-1.1-3.7v-21.6h-5.1v-3.1h5.1v-11.1h3.7v11.1h5.8v3.1h-5.8V588.8z"/>
		<path class="st1" d="M648.2,556.7c0-0.8,0.3-1.5,0.9-2.2c0.6-0.6,1.3-0.9,2.2-0.9s1.6,0.3,2.2,0.9s0.9,1.3,0.9,2.2
			s-0.3,1.6-0.9,2.2s-1.3,0.9-2.2,0.9s-1.6-0.3-2.2-0.9S648.2,557.5,648.2,556.7z M649.4,564.7h3.7v28.7h-3.7V564.7z"/>
		<path class="st1" d="M659.4,579.2c0-4.2,1.4-7.8,4.3-10.8c2.9-3,6.4-4.5,10.6-4.5c4.2,0,7.7,1.5,10.6,4.5c2.9,3,4.3,6.6,4.3,10.7
			c0,4.2-1.4,7.7-4.3,10.7c-2.9,3-6.4,4.5-10.6,4.5c-4.2,0-7.8-1.5-10.6-4.5C660.8,586.9,659.4,583.3,659.4,579.2z M685.5,579.2
			c0-3.2-1.1-5.9-3.3-8.2c-2.2-2.3-4.8-3.5-7.9-3.5c-3,0-5.7,1.2-7.9,3.5c-2.2,2.3-3.3,5.1-3.3,8.3s1.1,5.9,3.2,8.2
			c2.1,2.2,4.8,3.3,7.9,3.3c3.1,0,5.8-1.1,8-3.4C684.4,585.2,685.5,582.4,685.5,579.2z"/>
		<path class="st1" d="M696.1,564.7h3.7v5.1c3-3.9,6.5-5.9,10.7-5.9c2.2,0,4.1,0.6,5.8,1.8c1.7,1.2,3,2.7,3.7,4.6
			c0.7,1.9,1.1,4.7,1.1,8.3v14.7h-3.7v-13.7c0-3.3-0.2-5.6-0.5-6.8c-0.3-1.2-0.8-2.2-1.4-3c-0.6-0.8-1.4-1.5-2.4-1.9
			s-2.2-0.6-3.5-0.6c-1.4,0-2.7,0.3-4.1,1c-1.3,0.7-2.5,1.6-3.4,2.9c-0.9,1.2-1.6,2.5-1.9,3.8c-0.3,1.3-0.5,3.9-0.5,7.8v10.5h-3.7
			V564.7z"/>
	</g>
</g>
<g>
</g>
<g>
</g>
<g>
</g>
<g>
</g>
<g>
</g>
<g>
</g>
<g>
</g>
<g>
</g>
<g>
</g>
<g>
</g>
<g>
</g>
</svg>
